name analog
datacolumns 19
datarows 18
range 0.6950000000000001 0.7035
endheader
time	ground_force_vx	ground_force_vy	ground_force_vz	ground_force_px	ground_force_py	ground_force_pz	l_ground_force_vx	l_ground_force_vy	l_ground_force_vz	l_ground_force_px	l_ground_force_py	l_ground_force_pz	ground_torque_x	ground_torque_y	ground_torque_z	l_ground_torque_x	l_ground_torque_y	l_ground_torque_z
0.6950000000000001	-0.0	-0.0	-0.0	-35.39012908935547	81.96762084960938	-690.9324340820312	-32.68780899047852	-92.4145278930664	-741.6051635742188	-0.0	-0.0	-0.0	-0.0	-0.0	-0.0	181002.9375	5416.146484375	-13213.3173828125
0.6955	-0.0	-0.0	-0.0	-33.75409698486328	81.16739654541016	-682.705078125	-45.96894073486328	-90.88876342773438	-730.2100219726562	-0.0	-0.0	-0.0	-0.0	-0.0	-0.0	178862.59375	5147.80078125	-16791.25390625
0.6960000000000001	-0.0	-0.0	-0.0	-31.258472442626957	77.4869155883789	-674.341064453125	-53.1297607421875	-86.76797485351562	-725.6561279296875	-0.0	-0.0	-0.0	-0.0	-0.0	-0.0	178299.921875	4245.64697265625	-18754.935546875
0.6965	-0.0	-0.0	-0.0	-27.960227966308597	74.54576873779297	-665.046875	-52.14223861694336	-83.08688354492188	-719.4906616210938	-0.0	-0.0	-0.0	-0.0	-0.0	-0.0	177718.40625	2788.931640625	-18421.640625
0.6970000000000001	-0.0	-0.0	-0.0	-25.8123722076416	72.64128112792969	-652.3612670898438	-45.01780700683594	-80.40956115722656	-714.71337890625	-0.0	-0.0	-0.0	-0.0	-0.0	-0.0	177721.5	588.2730712890625	-16223.064453125
0.6975	-0.0	-0.0	-0.0	-24.772436141967773	71.00887298583984	-643.2910766601562	-36.44599914550781	-79.13854217529297	-713.5647583007812	-0.0	-0.0	-0.0	-0.0	-0.0	-0.0	178131.671875	-1405.4443359375	-13310.4931640625
0.6980000000000001	-0.0	-0.0	-0.0	-24.856563568115234	67.86137390136719	-635.138671875	-29.16996955871582	-78.04853820800781	-712.8670654296875	-0.0	-0.0	-0.0	-0.0	-0.0	-0.0	178470.453125	-3792.2978515625	-10872.79296875
0.6985	-0.0	-0.0	-0.0	-25.1826229095459	65.07861328125	-624.3221435546875	-22.98873519897461	-77.927490234375	-709.027099609375	-0.0	-0.0	-0.0	-0.0	-0.0	-0.0	178200.765625	-5798.06396484375	-8631.927734375
0.6990000000000001	-0.0	-0.0	-0.0	-25.54487609863281	63.17120361328125	-613.5068359375	-19.94268035888672	-77.67033386230469	-700.5387573242188	-0.0	-0.0	-0.0	-0.0	-0.0	-0.0	176769.71875	-7438.36669921875	-7196.66015625
0.6995	-0.0	-0.0	-0.0	-26.10510635375977	62.034759521484375	-602.790771484375	-17.656152725219727	-76.86481475830078	-692.6182250976562	-0.0	-0.0	-0.0	-0.0	-0.0	-0.0	175576.640625	-8959.1552734375	-6282.81396484375
0.7000000000000001	-0.0	-0.0	-0.0	-25.0463924407959	61.09101104736328	-589.9795532226562	-16.203563690185547	-75.07624053955078	-685.744873046875	-0.0	-0.0	-0.0	-0.0	-0.0	-0.0	174327.96875	-10514.75	-5698.31103515625
0.7005	-0.0	-0.0	-0.0	-23.49003219604492	60.104637145996094	-581.0055541992188	-15.729424476623535	-72.60626983642578	-677.7032470703125	-0.0	-0.0	-0.0	-0.0	-0.0	-0.0	172826.53125	-11864.779296875	-5399.80029296875
0.7010000000000001	-0.0	-0.0	-0.0	-21.416887283325195	59.37038803100586	-569.4857788085938	-15.876220703125	-70.68778991699219	-668.6490478515625	-0.0	-0.0	-0.0	-0.0	-0.0	-0.0	171259.59375	-13138.8330078125	-5270.56396484375
0.7015	-0.0	-0.0	-0.0	-18.95334815979004	58.70941925048828	-555.5650634765625	-15.909841537475586	-69.60371398925781	-659.4515380859375	-0.0	-0.0	-0.0	-0.0	-0.0	-0.0	169891.140625	-14380.6728515625	-5052.453125
0.7020000000000001	-0.0	-0.0	-0.0	-16.545042037963867	57.67758560180664	-541.6962890625	-15.43244171142578	-68.47660064697266	-651.4217529296875	-0.0	-0.0	-0.0	-0.0	-0.0	-0.0	168129.53125	-15671.982421875	-4726.6171875
0.7025	-0.0	-0.0	-0.0	-13.62528133392334	56.30999374389648	-529.227294921875	-14.029552459716797	-67.57268524169922	-640.262451171875	-0.0	-0.0	-0.0	-0.0	-0.0	-0.0	166114.015625	-16682.283203125	-4170.95703125
0.7030000000000001	-0.0	-0.0	-0.0	-11.74845027923584	54.43855285644531	-516.2408447265625	-12.477508544921877	-66.62853240966797	-630.9573974609375	-0.0	-0.0	-0.0	-0.0	-0.0	-0.0	163925.015625	-18135.736328125	-3360.72998046875
0.7035	-0.0	-0.0	-0.0	-8.69924259185791	51.79589080810547	-503.78662109375	-10.12010383605957	-65.76903533935547	-619.436767578125	-0.0	-0.0	-0.0	-0.0	-0.0	-0.0	161596.84375	-19189.57421875	-2343.61181640625
